<?xml version="1.0" encoding="utf-8"?>
<!-- Generator: Adobe Illustrator 24.0.1, SVG Export Plug-In . SVG Version: 6.00 Build 0)  -->
<svg version="1.1" id="Слой_1" xmlns="http://www.w3.org/2000/svg" xmlns:xlink="http://www.w3.org/1999/xlink" x="0px" y="0px"
	 viewBox="0 0 1808 542.8" style="enable-background:new 0 0 1808 542.8;" xml:space="preserve">
<style type="text/css">
	.st0{fill:#6B54A4;}
	.st1{fill:#EC313A;}
	.st2{fill:#FFFFFF;}
</style>
<g>
	<path class="st0" d="M584.4,261.5c-1.6,40.5-8,79.6-24.3,116.9c-9.6,22-24.1,40.6-38.9,59c-11.3,14-23.2,27.4-35.6,40.4
		c-14.9,15.5-33.9,24.3-54,31c-25.6,8.4-51.2,16.9-76.6,25.9c-19.4,6.8-39.3,8.8-59.6,7.9c-32.2-1.4-63.8-7.3-94.6-16.8
		c-31.9-9.8-62.7-22.5-90.6-41.1c-12.1-8.1-22.7-17.9-32.2-29c-11.7-13.8-23.7-27.5-35.5-41.2c-8.9-10.4-13.6-22.6-16.8-35.7
		c-5.4-21.8-11-43.5-17.6-65c-7.9-25.6-10.5-51.3-5.6-77.9c2.6-14,3.5-28.4,5.6-42.5c4-26.4,16.1-49.1,32.4-69.9
		C63,94.9,91.1,73,122.2,54.8c33.9-19.9,70.1-34.4,108.3-44c24.8-6.2,50-10,75.5-10.7C342.9-1,378.1,7,411.9,21.6
		c37.1,16,70.9,37.4,100.9,64.6c35.5,32.2,57.6,71.6,65.2,118.9C580.9,223.7,582.3,242.6,584.4,261.5z M322,15.7
		c-36.6,0.2-62,3.7-86.9,9.9c-45.7,11.4-88.3,29.8-126.8,57c-27.3,19.3-51.4,41.9-68,71.4c-6.9,12.2-12.6,25-14.8,38.9
		c-2,12.5-2.7,25.2-5.1,37.6c-5,26.5-4.8,52.4,3.4,78.4c6.7,21.4,12.4,43.1,17.7,64.9c3.1,12.6,8.2,23.8,16.5,33.8
		c3.3,4,6.5,8.1,9.9,11.9c12.6,13.9,24.5,28.7,38.2,41.4c19.4,18,43.3,29.2,67.7,38.8c38.6,15.3,78.6,25.1,120.2,27.1
		c18.1,0.8,36-0.3,53.3-6c25.6-8.5,51-17.4,76.6-25.9c19.2-6.4,37.3-14.7,51.1-29.9c14.5-16,28.4-32.6,42.2-49.2
		c19.6-23.6,32.5-50.6,39.9-80.3c10.3-41.7,11.7-83.8,4.3-126.2s-26-78.7-57.4-108.3c-28.5-27-60.9-47.9-96.7-63.7
		C376.7,23.6,344.8,15.4,322,15.7z"/>
	<path class="st1" d="M1511.1,242.5c0.7,8.3,0.9,16.5,2.2,24.8c1.5,9.4,4.6,18.4,5.7,27.7c0.7,5.1,0,11-1.7,15.8
		c-2,5.9-7.9,8.8-13.4,6.1c-3.9-2-8.4-7-8.8-10.8c-4.4-45.6-8.3-91.3-12.1-136.8c-0.6-6.1-0.6-12.3-0.2-18.4
		c0.4-9,7.3-14.5,16.7-14.5c7.7,0.2,10.8,4.4,10.8,14.9c0,6.8-1.1,13.4-0.7,20.2c0.6,9.6,4.6,11.6,12.1,6.1
		c6.4-4.8,11.9-10.5,18-15.4c2.9-2.6,6.4-6.6,9.6-6.4c5.1,0.4,10.8,2.8,15.1,5.9c1.1,0.7-0.9,9-3.5,11.2
		c-8.1,6.8-17.3,12.3-26.1,18.4c-3.3,2.2-7,4-10.3,6.1c-9.6,6.2-10.3,8.4-3.1,17.3c8.4,10.5,17.8,20,26.6,30.1
		c6.1,7,12.1,13.8,17.5,21.1c3.1,4.4,7.5,9.7,0.9,15.2c-6.1,5-14.5,5.5-20-0.2c-7.2-7.3-13.6-15.6-20.2-23.5
		c-4.2-5-8.1-10.3-12.1-15.4C1513.1,241.7,1512,242.1,1511.1,242.5z"/>
	<path class="st1" d="M1623.9,248.1c1.3-12.1,3.5-21.7,12.3-27.6c9.9-6.6,20-12.9,30.9-17.8c14.1-6.4,23.5-14.7,24.8-31.6
		c0.4-5.5,6.1-11.2,10.7-15.4c1.7-1.7,8.1-0.4,10.5,1.7c2.4,2,4,7.3,3.1,10.1c-13.8,41-12.3,82.3-6.4,124.2c0.4,2.9-1.8,8.6-3.9,9.2
		c-3.7,0.9-8.1-0.7-12.1-1.8c-0.9-0.2-1.7-1.8-2-2.9c-2.8-8.4-8.8-10.7-17.1-9.9c-20.4,1.8-33.6-10.5-45.4-24.6
		C1625.7,257.5,1625,251.5,1623.9,248.1z M1683.4,224.6c1.3-5.7-0.9-8.1-6.8-6.6c-4,1.1-8.4,1.8-12.3,3.5
		c-10.8,4.6-16.2,12.7-14.5,21.5c2,10.7,13.4,21.3,23.5,20.9c2.6-0.2,6.8-3.3,7-5.5C1681.9,247.2,1682.5,235.8,1683.4,224.6z"/>
	<path class="st1" d="M742,238.6c-8.4,2.2-15.4,5.1-22.4,5.3c-3.9,0.2-10.1-3.7-10.8-7c-0.7-3.1,3.1-9,6.4-11.4
		c4-2.8,9.7-3.3,14.7-4.6c14.7-3.7,18-7.7,19.3-22.6c1.1-12.1,2.8-24.2,4.6-36.4c1.8-11.8,16.2-16.9,25-8.6
		c2.4,2.2,2.2,8.3,1.5,12.1c-3.1,16.3-7,32.5-11,50.9c10.3-0.7,17.5-1.5,24.6-1.5c5.9,0,13-1.8,15.2,6.2c1.5,5.7-5,11.9-14,13
		c-6.2,0.9-12.9,1.1-19.3,0.7c-7-0.4-9.4,2.6-9,9.2c1.7,25,3.1,50,4.8,75.1c0.4,7,0.7,14,0.9,21.1c0.2,5.5-2,10.7-8.1,9.7
		c-3.9-0.6-9.7-4.2-10.5-7.3c-2.6-10.3-3.5-21.1-4.4-31.8c-2-21.7-3.5-43.2-5.5-64.8C743.8,243.6,742.7,241,742,238.6z"/>
	<path class="st1" d="M1181.9,237.9c-7.5,2.4-13.6,5-19.7,6.2c-6.1,1.3-12.3-0.2-14.1-7c-2-7,3.1-10.7,9-12.9
		c4.2-1.7,8.8-2.4,13.2-3.5c13-3.1,17.1-7.9,18.4-21.3c1.3-13,3.5-26.1,5-39.1c0.7-6.6,5-10.7,10.8-10.1c5.7,0.4,11.4,2.9,16.5,5.5
		c1.1,0.6,0,6.1-0.7,9.2c-2.8,14-6.1,27.9-8.8,42.1c-1.5,7.5,1.1,10.8,9.6,9c5.5-1.3,11.6-1.7,17.3-0.9c3.5,0.6,6.8,3.7,10.1,5.7
		c-2.4,3.9-4,9.7-7.3,11.2c-5.9,2.6-13,2.9-19.7,3.1c-15.4,0.6-15.8,0.4-15.1,16c1.1,22.6,3.1,45.2,4.8,67.8
		c0.4,6.8,0.6,13.4,0.9,20.2c0.2,5.9-1.5,10.3-8.1,11.4c-7.2,1.1-10.5-3.3-11.4-9.2c-1.8-11.8-2.9-23.7-3.9-35.5
		c-1.5-18-2.6-36-4-54C1184.3,247.2,1182.9,242.8,1181.9,237.9z"/>
	<path class="st1" d="M897,306.6c-12.9-0.2-23-5.3-30.3-16c-4.4-6.4-3.3-11.4,2.4-15.8c5.7-4.2,11-3.9,14.3,2.9
		c6.2,13,31,9.4,38.4-3.1c3.9-6.4,1.5-12.7-7-17.1c-7.5-4-16-6.2-23.3-10.5c-8.1-4.6-16.3-9.7-23-16.2c-7.7-7.7-7.2-16.2-0.6-25
		c18-23.9,56-25.3,75.9-2.8c4.4,5,6.1,11.2,1.1,15.6c-2.9,2.6-9.7,2.8-13.8,1.3c-6.8-2.2-12.9-7.2-19.5-10.1
		c-9.4-4.4-19.8-2.2-22.2,3.9c-2.2,5.3,4.2,13.6,13.2,17.6c10.5,5,21.5,9.2,31,15.4c17.3,11.2,18.4,29,3.3,43.7
		C925.9,301.2,912.3,306,897,306.6z"/>
	<path class="st1" d="M1285,239.7c4-5,7.7-10.3,12.3-14.5c4.2-3.9,9.2-7.3,14.5-9c10.7-3.5,15.6-0.6,17.5,10.7
		c3.5,21.7,6.4,43.4,9.2,65.2c0.9,7-0.9,13-9.4,14.1c-9,1.3-12.5-5.1-13.6-11.8c-1.7-10.8-1.3-21.9-2.4-32.9c-0.6-6.4-2-13-3.1-19.5
		c-1.1-0.4-2.4-0.7-3.5-1.1c-6.4,8.6-12.9,17.1-18.9,25.9c-3.1,4.6-5.5,9.6-8.1,14.3c-3.9,7.2-9.7,8.3-17.1,6.6
		c-7.7-1.8-5.9-7.5-5.7-12.5c0.9-21.1,2.2-42.1,3.1-63.2c0.4-9.2-0.4-18.2,0-27.4c0.2-3.1,1.7-7.3,3.9-8.8c4-2.4,9.4-4.6,13.8-3.9
		c2.6,0.6,5.5,7,5.3,10.7c-0.2,10.7-2.4,21.3-2.8,32c-0.2,8.3,1.1,16.5,1.8,25C1283,239.7,1283.9,239.7,1285,239.7z"/>
	<path class="st1" d="M1758,306.2c-13-0.2-23.9-4.6-31-16.2c-4.4-7-2.2-12.1,4-16.3c6.1-4,9.9-1.3,13.2,4.4c5,8.3,13.2,8.1,21.1,7
		c8.1-1.1,15.1-4.8,17.1-13c0.7-3.3-0.9-9.2-3.5-11c-7-4.8-15.1-7.9-22.6-11.9c-8.1-4.4-16.7-7.9-23.5-13.8
		c-13.2-11.6-12.7-23,0-35.1c19.5-18.6,52-17.6,70.4,2c4.4,4.8,7.2,10.3,2.2,16.3c-4.4,5.3-9.7,4-14.9,1.1c-5.3-2.9-10.5-6.4-16-9
		c-3.3-1.7-7.2-3.5-10.5-2.9c-5,0.9-9.6,3.7-14.3,5.7c2,4.4,2.9,9.9,6.2,13.2c3.1,3.3,8.4,4.6,12.9,6.8c9.4,5,19.3,9.4,28.1,15.2
		c10.8,7.3,12.9,16.5,8.1,28.8C1798.6,294.6,1779.1,306.6,1758,306.2z"/>
	<path class="st1" d="M1344.7,232.7c1.3-25.2,14-41.7,34.5-43.4c23.7-1.8,45,14.9,48.9,37.8c1.1,7.2-1.7,11.9-7.2,15.6
		c-11.2,7.5-22.8,14.3-34,21.9c-8.4,5.7-7.7,11.4,1.3,16c8.3,4.2,16,1.3,23.9-1.5c4.6-1.5,9.9-7.7,13.6,1.1c2.4,5.7-2,14.1-8.1,16.5
		c-28.3,11.2-56.4-1.5-65.8-30.3C1348.4,255.7,1347.1,244.1,1344.7,232.7z M1385.6,209.9c-11.8,0-18.6,7.3-18,20.4
		c0.4,6.2,0.4,13.6,9.7,13.8c13.4,0.4,27.2-10.7,26.8-21.3C1404,216,1395.4,209.9,1385.6,209.9z"/>
	<path class="st1" d="M1070.8,271.7c0-7.3-0.4-14.7,0.2-22c0.4-6.4-2.2-8.6-8.4-8.6c-13.8,0.2-27.6-0.2-41.3-0.6
		c-9.9-0.2-12.7-2.6-12.9-12.5c-0.2-14.7,0-29.4,0.2-44.1c0-6.4,2.6-10.8,9.6-11.2c7-0.2,11,3.9,11.2,10.7c0.2,9.6,0,18.9-0.4,28.5
		c-0.2,5.7,1.7,8.4,7.7,8.3c9.2-0.4,18.4-0.2,27.6,0.2c5.3,0.2,7-2.2,7-7.2c0-9.6,0.2-18.9,0.2-28.5c0-7,3.1-11.6,9.9-11.6
		c7.5-0.2,10.8,4.8,10.8,11.9c0,8.3-0.6,16.5,0.2,24.8c0.4,5.1,2.6,10.3,3.7,15.4c0.6,2.6,2,6.1,0.9,7.9
		c-8.4,14.1-3.3,29.8-5.5,44.6c-0.7,5.7-0.2,11.6-0.2,17.5c0,6.8-2.8,11.4-10.1,11.4c-7.2,0-10.3-4-10.1-11.2c0.2-7.9,0-16,0-23.9
		C1070.6,271.7,1070.8,271.7,1070.8,271.7z"/>
	<path class="st1" d="M669.4,224.1c1.1-14.9,2.4-36.2,4.2-57.5c0.6-7.2,4.2-12.7,11.8-14.5c12.1-2.9,20.4,5.3,16.9,17.1
		c-7.5,24.8-6.1,50.1-5.3,75.5c0.4,13.8,0.7,27.6,1.3,41.1c0.4,8.4-4.8,9.9-11.4,8.6c-8.4-1.7-14-7-14.7-15.4
		C670.9,262.8,670.5,246.7,669.4,224.1z"/>
	<path class="st1" d="M1581.3,249.4c1.5-13.4,1.7-24.8,4-35.6c2.8-12.3,16.2-16.7,24.8-8.4c2,1.8,3.3,6.8,2.4,9.2
		c-7,17.8-8.1,36-6.8,54.7c0.2,2.8,0.6,5.5,0.7,8.3c0.6,7-1.5,11.9-9.6,12.7c-7.3,0.6-13.2-1.5-14-9.6
		C1582,269.3,1581.6,258.3,1581.3,249.4z"/>
	<path class="st1" d="M816.4,182.8c1.3-3.9,2.2-7.9,4-11.2c5-9.2,10.1-18.2,15.8-26.8c2.2-3.3,6.1-6.2,9.9-7.7
		c6.4-2.4,12.1,3.1,9.6,9.6c-6.1,15.6-15.1,29.4-28.3,39.9c-2,1.7-5.5,1.8-8.3,1.8C818.2,188.3,817.5,185,816.4,182.8z"/>
	<path class="st1" d="M1601.8,183.7c-7.7,0-14.9-5.9-14.7-12.3c0.2-8.8,7.5-15.1,17.5-15.1c7.3,0,11.8,3.9,12.5,10.8
		C1617.8,175,1609.6,183.7,1601.8,183.7z"/>
	<path class="st2" d="M322,15.7c22.9-0.2,54.8,7.9,85.4,21.4c35.8,15.8,68.2,36.7,96.7,63.7c31.4,29.7,50,65.9,57.4,108.3
		s6.1,84.5-4.3,126.2c-7.3,29.6-20.3,56.7-39.9,80.3c-13.8,16.6-27.7,33.2-42.2,49.2c-13.8,15.2-31.9,23.6-51.1,29.9
		c-25.6,8.5-51,17.4-76.6,25.9c-17.3,5.7-35.2,6.9-53.3,6c-41.7-1.9-81.6-11.8-120.2-27.1c-24.4-9.6-48.3-20.8-67.7-38.8
		C92.5,448,80.6,433.2,68,419.3c-3.5-3.8-6.6-7.9-9.9-11.9c-8.2-9.9-13.4-21.2-16.5-33.8c-5.4-21.8-11-43.5-17.7-64.9
		c-8.2-26-8.4-51.9-3.4-78.4c2.4-12.4,3.1-25.1,5.1-37.6c2.2-13.9,8-26.7,14.8-38.9c16.6-29.5,40.7-52.1,68-71.4
		c38.5-27.2,81.1-45.6,126.7-57C260,19.4,285.3,15.9,322,15.7z M434.5,422.9c1.3-0.2,2-0.2,2.6-0.3c5.2-1,7.6,0.5,8.4,5.5
		c1.2,7.1-1,11.9-6.1,11.9c-21.2,0.2-42.3,0-63.5,0c-3.3,0-4.5-2-3-4.5c2-3.3,4.8-6,7.2-9c1-1.3,2.9-2.6,2.9-3.9
		c0.1-12.2,0.1-24.3-0.4-36.5c-0.9-22.3-2.3-44.5-3.4-66.8c-0.1-1.6,0-3.2,0-5.2c-2.7,0.4-4.6,0.6-6.6,1
		c-16.3,2.9-31.8,7.8-43.9,19.7c-1.9,1.8-3.5,4.6-3.8,7.2c-2.8,21.1-5.4,42.3-7.8,63.5c-1.4,12.6-3,25.2-3.3,37.8
		c-0.2,12.6,1.2,25.3,1.9,37.9c0.4,6.4,0.8,12.9,1.2,19.2c1,0.3,1.5,0.5,2,0.5c1.7-0.1,3.3-0.1,5-0.3c47.3-5.3,90.6-21.4,129-49.6
		c47-34.5,78.3-79.7,90.8-137.1c0.7-3.3,1.1-6.7,1.8-11c-35.5,8.1-70.7,6.5-105.4,7.2C438.2,348,436.4,385.2,434.5,422.9z
		 M150,324.4c-12,1.6-24.3,2.1-36,5.1c-19.8,5.1-39.2,11.9-58.8,17.7c-4.3,1.3-5,2.8-3.2,7c12.7,29.5,30.8,55.1,54.1,77.1
		c26,24.6,56,42.7,89.6,55c19.3,7.1,39.2,11.6,59.6,14.4c4.3,0.6,7.5,0.3,7.3-5.3c-0.1-2.9,0.8-5.9,1.2-8.9
		c3.2-22.1,6.9-44.1,5.4-66.6c-1.6-23.6-9.5-44.3-27.3-60.8C216.1,335,185,325.3,150,324.4z M330.7,292.6c9.6-3.1,18.5-7.3,27.9-8.7
		c21-3.1,42.3-4.9,63.5-7c39.8-3.8,79.6-7.5,119.4-11c4.8-0.4,6.1-1.8,5.3-6.7c-4.9-34-14.6-66.6-28.8-97.8
		c-5.2-11.4-11.3-22.3-20.3-31.2c-5.4-5.4-11.6-10.3-19.7-8.8c-6.5,1.2-12.7,3.8-18.9,6.1c-20.6,7.6-40,17.3-56.1,32.7
		c-29.5,28.2-51.8,61-65.5,99.6C333.6,270.4,331,281.3,330.7,292.6z M333.5,194.6c-13.7-12.4-24.9-25.7-34.1-40.8
		c-15.8-26-24.2-54.6-30.2-84.1c-1.8-8.9-3.1-17.9-4.8-27.1c-22.5,2-44,6.4-65.4,14.4c13.7,18.6,22.1,38.8,28.1,60.1
		c7.5,26.7,13.1,53.8,12.5,81.6c-0.4,19.6-2.9,39.1-4.8,58.7c-0.5,4.8-0.1,8.2,4.7,10.7c3.7,1.9,7,4.5,10.4,6.9
		c14.8,10.5,29.3,21.5,40.8,35.8c1.6,2,3.3,4,4.9,6c0.5,0,1,0,1.5,0C298.3,272.8,309,231.7,333.5,194.6z M62.7,168.4
		c-25.7,47.5-33,96.8-22.1,149.2c1.4-0.3,1.9-0.4,2.4-0.5c21.1-6.5,42.2-13.1,63.5-19.4c21.6-6.4,43.7-6.5,65.9-3.9
		c29.3,3.4,56.3,13.4,79.5,31.9c9,7.1,16.9,15.6,25.2,23.5c-4.4-10.8-10.9-20.4-20-27.9c-9.3-7.6-18.9-14.9-29-21.3
		c-27.6-17.4-55.7-34-83.2-51.4C112.1,227.9,83.3,203.1,62.7,168.4z M203.1,245.2c0-29,0-57,0-84.9c0-6.8,0.4-13.8-0.9-20.4
		c-3.8-20.7-13.2-39.3-23.2-57.6c-2.6-4.8-6.9-8.7-10.4-12.8c-32,16.1-59.2,37.1-81.9,63.9c-2.3,2.7-2.9,5-1.4,8.4
		c6,13.7,13.8,26.2,23.8,37.3C135.2,207.9,169.1,225.5,203.1,245.2z M454.9,94.4C407.7,59.7,355,42.8,296.1,41.2
		c7.4,47.6,19.1,92,55.2,126.5c13.8-17.1,28.9-31.9,45.9-45C414.4,109.4,435.7,104.8,454.9,94.4z M428.7,424c0-13.4,0-25.7,0-38
		c0-23.7-0.1-47.3-0.1-71c0-3.5-0.6-5.3-4.7-5c-10.4,0.8-20.9,1.5-31.4,2c-3,0.2-3.9,1.5-4,4.3c-0.8,20.8-1.9,41.6,1.5,62.3
		c0.4,2.6,0.2,5.3,0,7.9c-0.7,8.8-2.1,17.6-2.1,26.3c0.1,10.9,0.7,10.9,11.4,10.9c3.3,0,6.7,0.1,10,0.1C416,424,422.6,424,428.7,424
		z"/>
	<path class="st2" d="M1683.4,224.6c-0.9,11.2-1.3,22.6-2.9,33.6c-0.4,2.2-4.6,5.5-7,5.5c-10.1,0.4-21.5-10.3-23.5-20.9
		c-1.7-8.8,3.7-17.1,14.5-21.5c3.9-1.7,8.1-2.4,12.3-3.5C1682.3,216.6,1684.7,218.9,1683.4,224.6z"/>
	<path class="st2" d="M1385.6,209.9c9.7,0,18.4,5.9,18.6,12.9c0.4,10.7-13.4,21.7-26.8,21.3c-9.4-0.2-9.4-7.5-9.7-13.8
		C1367.1,217.5,1373.9,210.1,1385.6,209.9z"/>
	<path class="st1" d="M434.5,422.9c1.9-37.7,3.8-74.9,5.7-112.9c34.7-0.7,69.8,0.9,105.4-7.2c-0.7,4.3-1.1,7.7-1.8,11
		C531.3,371.3,500,416.4,453,450.9c-38.4,28.2-81.7,44.3-129,49.6c-1.7,0.2-3.3,0.3-5,0.3c-0.5,0-0.9-0.2-2-0.5
		c-0.4-6.3-0.8-12.8-1.2-19.2c-0.7-12.6-2.1-25.3-1.9-37.9s1.9-25.2,3.3-37.8c2.4-21.2,5-42.3,7.8-63.5c0.3-2.5,1.9-5.3,3.8-7.2
		c12.2-12,27.7-16.8,43.9-19.7c1.9-0.3,3.9-0.6,6.6-1c0,2-0.1,3.6,0,5.2c1.2,22.3,2.5,44.5,3.4,66.8c0.5,12.1,0.5,24.3,0.4,36.5
		c0,1.3-1.9,2.6-2.9,3.9c-2.4,3-5.3,5.7-7.2,9c-1.5,2.5-0.3,4.5,3,4.5c21.2,0,42.3,0.1,63.5,0c5.1,0,7.3-4.8,6.1-11.9
		c-0.9-5-3.2-6.6-8.4-5.5C436.4,422.7,435.8,422.7,434.5,422.9z"/>
	<path class="st1" d="M150,324.4c34.9,0.9,66,10.6,92,34.7c17.8,16.5,25.7,37.2,27.3,60.8c1.5,22.5-2.2,44.5-5.4,66.6
		c-0.4,3-1.3,5.9-1.2,8.9c0.1,5.6-3,5.9-7.3,5.3c-20.3-2.8-40.3-7.3-59.6-14.4c-33.5-12.3-63.6-30.4-89.6-55
		c-23.3-22-41.4-47.6-54.1-77.1c-1.8-4.1-1.1-5.7,3.2-7c19.6-5.8,39-12.6,58.8-17.7C125.7,326.5,138,326,150,324.4z M115.2,391.9
		c6.8-1.3,13.9-1.9,20.4-4.1c16.2-5.5,32.4-20.7,27.4-42.2c-2.3-9.9-6.3-12.7-16.5-11.5c-12.7,1.4-22.6,7.9-32.1,15.8
		c-8.4,7-13.5,14.8-13.6,26.3C100.7,390.4,100.8,391.2,115.2,391.9z M218,361.4c-0.5-0.1-0.9-0.3-1.4-0.4c1.1-3.6-0.7-4.5-3.8-4.4
		c-9.9,0.2-19.2,2.4-27.5,7.8c-14.5,9.4-18.5,25.7-2.7,40c1,0.9,3.2,1.4,4.4,0.9c8.5-3.6,17.1-7.8,21.2-16.5
		C212.2,380.1,214.8,370.6,218,361.4z"/>
	<path class="st0" d="M330.7,292.6c0.4-11.3,2.9-22.2,6.7-32.9c13.7-38.6,36-71.4,65.5-99.6c16.1-15.4,35.6-25,56.1-32.7
		c6.2-2.3,12.5-4.9,18.9-6.1c8.1-1.5,14.3,3.4,19.7,8.8c9,9,15.1,19.9,20.3,31.2c14.2,31.2,23.8,63.8,28.8,97.8
		c0.7,4.9-0.5,6.3-5.3,6.7c-39.8,3.5-79.6,7.2-119.4,11c-21.2,2-42.4,3.9-63.5,7C349.2,285.3,340.2,289.6,330.7,292.6z M410.1,262
		c15.4-0.6,22.4-4.7,30-18.1c1.5-2.6,2.9-5.2,4.5-7.8c2-3.2,1.6-5.9-1.7-7.5c-7.7-3.9-15.4-7.8-23.3-11.3c-10-4.4-20.4-4.3-30.6-0.6
		c-14.9,5.4-24.7,15.1-27.1,31.5c-0.6,4.2,1,5,4.6,5.6c8.2,1.3,16.3,3.2,24.4,4.8C397.3,259.9,403.7,261,410.1,262z M517.5,199.5
		c-3.5,0.5-6.4,0.9-9.3,1.3c-7.6,1-15.4,1.1-22.6,3.2c-11.6,3.5-20.6,10.7-22,23.7c-1,9.4-0.8,18.9-4.4,27.9
		c-1.3,3.2,0.8,4.9,4.3,4.7c5.6-0.4,11.3-0.4,16.9-1.1c11.6-1.5,21-7.1,27.6-16.9C516.6,229.5,518.4,215.3,517.5,199.5z
		 M416.2,186.1c12,0,23.7,0.8,35.2-0.2c14.6-1.2,27-7.8,36.3-19.4c4.4-5.4,3.7-8.4-2.8-10.8c-3.7-1.4-7.6-2.6-11.5-3.4
		c-20.6-4.1-38.3,0.3-51,18.3C419.1,175.4,416.1,180.6,416.2,186.1z"/>
	<path class="st0" d="M333.5,194.6c-24.5,37.1-35.1,78.2-36.4,122.1c-0.5,0-1,0-1.5,0c-1.6-2-3.3-4-4.9-6
		c-11.5-14.3-25.9-25.3-40.8-35.8c-3.4-2.4-6.7-5-10.4-6.9c-4.7-2.4-5.1-5.9-4.7-10.7c1.9-19.5,4.4-39.1,4.8-58.7
		c0.5-27.8-5-54.9-12.5-81.6c-6-21.3-14.3-41.5-28.1-60.1c21.5-8,42.9-12.3,65.4-14.4c1.6,9.2,2.9,18.2,4.8,27.1
		c6,29.5,14.4,58.1,30.2,84.1C308.5,168.9,319.8,182.1,333.5,194.6z M281.8,257.6c8-13.7,15.5-25.3,21.6-37.6
		c6.2-12.6,6.8-26.1,0.9-39.2c-5.8-12.9-14.3-23.2-28.4-27.6c-2.2-0.7-4.4-1.5-5.7,1.7c-3.4,8.3-7.1,16.5-10.3,24.9
		c-6.3,16-9.1,32.8-1,48.4C264.2,238.7,273.4,247.2,281.8,257.6z M220.6,73.7c0.3,17.7,12.6,35.8,29,42.2c8.5,3.3,10.5,2.4,10.9-6.6
		c1-18.3-7.4-32.7-20.1-44.9c-2.5-2.4-6.3-3.7-9.6-5.1c-4.1-1.7-7.2-0.7-8.2,4.1C222,66.8,221.3,70.3,220.6,73.7z"/>
	<path class="st0" d="M62.7,168.4c20.6,34.7,49.4,59.5,82.1,80.2c27.6,17.4,55.7,34,83.2,51.4c10.1,6.4,19.7,13.7,29,21.3
		c9.1,7.4,15.6,17.1,20,27.9c-8.4-7.9-16.3-16.3-25.2-23.5c-23.3-18.5-50.2-28.5-79.5-31.9c-22.1-2.6-44.3-2.5-65.9,3.9
		c-21.2,6.3-42.3,12.9-63.5,19.4c-0.5,0.1-0.9,0.2-2.4,0.5C29.7,265.3,37,215.9,62.7,168.4z M140.3,262.4c-7.5-6.8-14-13.1-21-18.9
		c-11-9.2-23.4-11.2-36.4-5c-11.4,5.5-22.3,11.9-33.3,18c-3.9,2.2-4.6,5.6-2.1,9.3c2.7,4.2,5.3,8.5,8.5,12.3
		c7.3,8.7,16.5,12.5,28,10.3C104.6,284.6,120.6,270.8,140.3,262.4z"/>
	<path class="st0" d="M203.1,245.2c-34-19.7-67.9-37.3-93.9-66.1c-10-11.1-17.8-23.6-23.8-37.3c-1.5-3.4-0.9-5.7,1.4-8.4
		c22.7-26.8,49.9-47.8,81.9-63.9c3.4,4.2,7.8,8,10.4,12.8c9.9,18.3,19.4,36.9,23.2,57.6c1.2,6.6,0.8,13.6,0.9,20.4
		C203.1,188.2,203.1,216.2,203.1,245.2z M187.7,168.7c-1-26.6-9.2-48.2-20.6-68.9c-3.8-7-9.3-7.6-15.1-2.2c-1.6,1.5-3.2,3.1-4.1,5
		c-4.4,9.8-9.4,19.5-12.5,29.7c-5.5,17.9,0.9,32.7,14.7,44.5c8.4,7.2,18.2,12.1,28.6,15.8c3.1,1.1,4.5,0.4,5.1-2.4
		C185.2,183.1,186.4,175.9,187.7,168.7z"/>
	<path class="st0" d="M454.9,94.4c-19.3,10.4-40.5,14.9-57.7,28.3c-16.9,13.1-32.1,27.9-45.9,45c-36.1-34.5-47.9-78.9-55.2-126.5
		C355.1,42.8,407.7,59.7,454.9,94.4z M325,77.2c0.4,3.2,0.8,7.7,1.6,12.1c3.4,18,13.8,33,22,48.8c0.5,0.9,2.9,1.5,4,1.1
		c9.9-3.8,18.5-9.1,24.2-18.8c9.7-16.4,7.7-34-6.5-46.5c-11.7-10.3-26.4-15.2-40.2-21.7c-0.6-0.3-2.9,1.4-3,2.4
		C326.3,61.7,325.8,68.8,325,77.2z"/>
	<path class="st1" d="M428.7,424c-6.1,0-12.7,0-19.3,0c-3.3,0-6.7-0.1-10-0.1c-10.8,0.1-11.3,0-11.4-10.9
		c-0.1-8.8,1.4-17.6,2.1-26.3c0.2-2.6,0.4-5.4,0-7.9c-3.4-20.7-2.3-41.5-1.5-62.3c0.1-2.8,1-4.2,4-4.3c10.5-0.5,20.9-1.2,31.4-2
		c4-0.3,4.7,1.5,4.7,5c-0.1,23.7,0.1,47.3,0.1,71C428.7,398.3,428.7,410.6,428.7,424z"/>
	<path class="st2" d="M115.2,391.9c-14.5-0.8-14.6-1.6-14.4-15.7c0.1-11.5,5.2-19.3,13.6-26.3c9.5-7.9,19.4-14.3,32.1-15.8
		c10.2-1.1,14.2,1.6,16.5,11.5c5,21.4-11.3,36.7-27.4,42.2C129.1,390.1,122,390.6,115.2,391.9z"/>
	<path class="st2" d="M218,361.4c-3.2,9.2-5.8,18.6-9.9,27.4c-4.1,8.7-12.7,12.9-21.2,16.5c-1.2,0.5-3.4,0-4.4-0.9
		c-15.8-14.3-11.8-30.7,2.7-40c8.3-5.3,17.6-7.6,27.5-7.8c3.2-0.1,4.9,0.8,3.8,4.4C217.1,361.2,217.5,361.3,218,361.4z"/>
	<path class="st2" d="M410.1,262c-6.4-1.1-12.8-2.1-19.1-3.3c-8.1-1.5-16.2-3.4-24.4-4.8c-3.6-0.6-5.2-1.5-4.6-5.6
		c2.3-16.4,12.2-26,27.1-31.5c10.3-3.8,20.6-3.9,30.6,0.6c7.9,3.5,15.6,7.4,23.3,11.3c3.3,1.7,3.7,4.4,1.7,7.5
		c-1.6,2.5-3,5.2-4.5,7.8C432.5,257.3,425.5,261.4,410.1,262z"/>
	<path class="st2" d="M517.5,199.5c0.9,15.8-0.9,30.1-9.5,42.8c-6.6,9.8-16,15.4-27.6,16.9c-5.6,0.7-11.3,0.7-16.9,1.1
		c-3.5,0.3-5.5-1.5-4.3-4.7c3.6-9,3.4-18.5,4.4-27.9c1.4-13,10.4-20.2,22-23.7c7.2-2.1,15.1-2.2,22.6-3.2
		C511.1,200.3,514,199.9,517.5,199.5z"/>
	<path class="st2" d="M416.2,186.1c-0.1-5.6,2.9-10.7,6.3-15.5c12.7-18,30.4-22.4,51-18.3c3.9,0.8,7.7,2,11.5,3.4
		c6.4,2.4,7.2,5.3,2.8,10.8c-9.4,11.6-21.7,18.2-36.3,19.4C439.9,186.9,428.3,186.1,416.2,186.1z"/>
	<path class="st2" d="M281.8,257.6c-8.3-10.4-17.5-18.9-23-29.4c-8.1-15.6-5.3-32.4,1-48.4c3.3-8.3,7-16.5,10.3-24.9
		c1.3-3.2,3.5-2.4,5.7-1.7c14.1,4.4,22.6,14.8,28.4,27.6c5.9,13.1,5.2,26.6-0.9,39.2C297.3,232.3,289.7,243.9,281.8,257.6z"/>
	<path class="st2" d="M220.6,73.7c0.7-3.4,1.3-6.8,2.1-10.2c1-4.8,4.2-5.8,8.2-4.1c3.4,1.4,7.1,2.7,9.6,5.1
		c12.7,12.2,21,26.6,20.1,44.9c-0.5,9-2.4,9.9-10.9,6.6C233.2,109.4,221,91.4,220.6,73.7z"/>
	<path class="st2" d="M140.3,262.4c-19.8,8.4-35.7,22.2-56.3,26.2c-11.5,2.2-20.7-1.6-28-10.3c-3.2-3.8-5.7-8.2-8.5-12.3
		c-2.5-3.8-1.8-7.2,2.1-9.3c11-6.2,22-12.6,33.3-18c12.9-6.2,25.4-4.2,36.4,5C126.3,249.2,132.9,255.6,140.3,262.4z"/>
	<path class="st2" d="M187.7,168.7c-1.3,7.1-2.5,14.3-3.9,21.4c-0.6,2.8-2,3.5-5.1,2.4c-10.5-3.6-20.3-8.5-28.6-15.8
		c-13.7-11.8-20.2-26.6-14.7-44.5c3.2-10.2,8.2-19.9,12.5-29.7c0.8-1.9,2.5-3.5,4.1-5c5.8-5.4,11.3-4.8,15.1,2.2
		C178.5,120.6,186.7,142.2,187.7,168.7z"/>
	<path class="st2" d="M325,77.2c0.8-8.4,1.3-15.5,2.2-22.6c0.1-1,2.4-2.6,3-2.4c13.8,6.5,28.6,11.4,40.2,21.7
		c14.2,12.5,16.1,30.1,6.5,46.5c-5.7,9.7-14.3,15-24.2,18.8c-1.1,0.4-3.6-0.2-4-1.1c-8.3-15.8-18.7-30.8-22-48.8
		C325.8,84.8,325.4,80.4,325,77.2z"/>
</g>
</svg>
